<svg width="960" height="297" viewBox="0 0 960 297" fill="none" xmlns="http://www.w3.org/2000/svg">
<path fill-rule="evenodd" clip-rule="evenodd" d="M-176.241 0.673828C-176.31 0.673828 -176.365 0.729185 -176.365 0.797472C-176.365 0.865758 -176.31 0.921115 -176.241 0.921115H-127.876L-158.245 7.67787H-176.241C-176.31 7.67787 -176.365 7.73323 -176.365 7.80151C-176.365 7.8698 -176.31 7.92516 -176.241 7.92516H-159.356L-176.269 11.6881C-176.336 11.7029 -176.378 11.7689 -176.363 11.8356C-176.348 11.9023 -176.282 11.9443 -176.216 11.9294L-158.218 7.92516H-88.3182L-118.373 15.4466H-176.241C-176.31 15.4466 -176.365 15.502 -176.365 15.5702C-176.365 15.6385 -176.31 15.6939 -176.241 15.6939H-119.361L-153 24.1122H-176.241C-176.31 24.1122 -176.365 24.1675 -176.365 24.2358C-176.365 24.3041 -176.31 24.3594 -176.241 24.3594H-153.988L-176.273 29.9363C-176.339 29.9529 -176.379 30.02 -176.362 30.0863C-176.346 30.1525 -176.279 30.1928 -176.213 30.1762L-152.969 24.3594H-74.7351L-107.887 33.8414H-176.241C-176.31 33.8414 -176.365 33.8967 -176.365 33.965C-176.365 34.0333 -176.31 34.0886 -176.241 34.0886H-108.752L-146.359 44.8446H-176.241C-176.31 44.8446 -176.365 44.8999 -176.365 44.9682C-176.365 45.0365 -176.31 45.0919 -176.241 45.0919H-147.223L-176.277 53.4014C-176.342 53.4201 -176.38 53.4886 -176.361 53.5542C-176.343 53.6199 -176.274 53.6579 -176.209 53.6391L-146.324 45.0919H-57.6205L-94.4931 57.3952H-176.241C-176.31 57.3952 -176.365 57.4505 -176.365 57.5188C-176.365 57.5871 -176.31 57.6424 -176.241 57.6424H-95.2342L-137.755 71.8305H-176.241C-176.31 71.8305 -176.365 71.8858 -176.365 71.9541C-176.365 72.0224 -176.31 72.0778 -176.241 72.0778H-138.497L-176.282 84.6855C-176.346 84.7071 -176.381 84.7772 -176.36 84.8419C-176.338 84.9067 -176.268 84.9417 -176.203 84.9201L-137.715 72.0778H-35.4251L-76.7283 88.6151H-176.241C-176.31 88.6151 -176.365 88.6704 -176.365 88.7387C-176.365 88.807 -176.31 88.8623 -176.241 88.8623H-77.346L-126.074 108.372H-176.241C-176.31 108.372 -176.365 108.428 -176.365 108.496C-176.365 108.564 -176.31 108.62 -176.241 108.62H-126.692L-176.287 128.477C-176.351 128.503 -176.381 128.575 -176.356 128.638C-176.331 128.701 -176.259 128.732 -176.195 128.707L-126.026 108.62H-5.3745L-52.0471 131.976H-176.241C-176.31 131.976 -176.365 132.032 -176.365 132.1C-176.365 132.168 -176.31 132.224 -176.241 132.224H-52.5413L-109.379 160.667H-176.241C-176.31 160.667 -176.365 160.723 -176.365 160.791C-176.365 160.859 -176.31 160.915 -176.241 160.915H-109.874L-176.297 194.155C-176.358 194.185 -176.382 194.26 -176.352 194.321C-176.321 194.382 -176.247 194.407 -176.186 194.376L-109.321 160.915H37.558L-15.462 196.287H-176.241C-176.31 196.287 -176.365 196.342 -176.365 196.41C-176.365 196.479 -176.31 196.534 -176.241 196.534H-15.8326L-83.5108 241.685H-176.241C-176.31 241.685 -176.365 241.741 -176.365 241.809C-176.365 241.877 -176.31 241.933 -176.241 241.933H-83.8815L-173.216 301.532H-176.241C-176.31 301.532 -176.365 301.587 -176.365 301.656C-176.365 301.724 -176.31 301.779 -176.241 301.779H-173.587L-176.311 303.597C-176.368 303.635 -176.383 303.711 -176.345 303.768C-176.307 303.825 -176.231 303.84 -176.174 303.802L-173.141 301.779H44.1758L-38.0486 384.04H-176.241C-176.31 384.04 -176.365 384.095 -176.365 384.163C-176.365 384.232 -176.31 384.287 -176.241 384.287H-38.2958L-176.049 522.1C-176.073 522.125 -176.085 522.157 -176.085 522.189C-176.085 522.257 -176.03 522.312 -175.962 522.312H1135.16C1135.23 522.312 1135.28 522.257 1135.28 522.189C1135.28 522.154 1135.27 522.123 1135.25 522.1C1135.24 522.097 1135.24 522.093 1135.23 522.089L997.726 384.287H1136.57C1136.63 384.287 1136.69 384.232 1136.69 384.163C1136.69 384.095 1136.63 384.04 1136.57 384.04H997.479L915.396 301.779H1132.71L1136.5 304.307C1136.56 304.345 1136.63 304.329 1136.67 304.272C1136.71 304.216 1136.69 304.139 1136.64 304.101L1133.16 301.779H1136.57C1136.63 301.779 1136.69 301.724 1136.69 301.656C1136.69 301.587 1136.63 301.532 1136.57 301.532H1132.79L1043.56 241.933H1136.57C1136.63 241.933 1136.69 241.877 1136.69 241.809C1136.69 241.741 1136.63 241.685 1136.57 241.685H1043.19L975.588 196.534H1136.57C1136.63 196.534 1136.69 196.479 1136.69 196.41C1136.69 196.342 1136.63 196.287 1136.57 196.287H975.218L922.259 160.915H1069.14L1136.51 194.661C1136.57 194.691 1136.65 194.666 1136.68 194.605C1136.71 194.544 1136.68 194.47 1136.62 194.439L1069.69 160.915H1136.57C1136.63 160.915 1136.69 160.859 1136.69 160.791C1136.69 160.723 1136.63 160.667 1136.57 160.667H1069.2L1012.41 132.224H1136.57C1136.63 132.224 1136.69 132.168 1136.69 132.1C1136.69 132.032 1136.63 131.976 1136.57 131.976H1011.91L965.281 108.62H1085.94L1136.52 128.884C1136.54 128.89 1136.55 128.893 1136.57 128.892C1136.59 128.892 1136.61 128.886 1136.63 128.877C1136.64 128.87 1136.65 128.862 1136.66 128.852C1136.67 128.842 1136.68 128.829 1136.68 128.815C1136.71 128.751 1136.68 128.679 1136.61 128.654L1086.61 108.62H1136.57C1136.63 108.62 1136.69 108.564 1136.69 108.496C1136.69 108.428 1136.63 108.372 1136.57 108.372H1085.99L1037.29 88.8623H1136.57C1136.63 88.8623 1136.69 88.807 1136.69 88.7387C1136.69 88.6704 1136.63 88.6151 1136.57 88.6151H1036.68L995.4 72.0778H1097.68L1136.53 85.0482C1136.59 85.0698 1136.66 85.0348 1136.68 84.9701C1136.71 84.9053 1136.67 84.8352 1136.61 84.8136L1098.46 72.0778H1136.57C1136.63 72.0778 1136.69 72.0224 1136.69 71.9541C1136.69 71.8858 1136.63 71.8305 1136.57 71.8305H1097.72L1055.22 57.6424H1136.57C1136.63 57.6424 1136.69 57.5871 1136.69 57.5188C1136.69 57.4505 1136.63 57.3952 1136.57 57.3952H1054.48L1017.63 45.0919H1106.33L1136.53 53.7346C1136.6 53.7534 1136.67 53.7154 1136.68 53.6498C1136.7 53.5841 1136.67 53.5157 1136.6 53.4969L1107.23 45.0919H1136.57C1136.63 45.0919 1136.69 45.0365 1136.69 44.9682C1136.69 44.8999 1136.63 44.8446 1136.57 44.8446H1106.37L1068.78 34.0886H1136.57C1136.63 34.0886 1136.69 34.0333 1136.69 33.965C1136.69 33.8967 1136.63 33.8414 1136.57 33.8414H1067.92L1034.78 24.3594H1113.03L1136.54 30.2453C1136.6 30.2619 1136.67 30.2216 1136.69 30.1554C1136.7 30.0892 1136.66 30.022 1136.6 30.0054L1114.04 24.3594H1136.57C1136.63 24.3594 1136.69 24.3041 1136.69 24.2358C1136.69 24.1675 1136.63 24.1122 1136.57 24.1122H1113.06L1079.43 15.6939H1136.57C1136.63 15.6939 1136.69 15.6385 1136.69 15.5702C1136.69 15.502 1136.63 15.4466 1136.57 15.4466H1078.44L1048.4 7.92516H1118.3L1136.54 11.9843C1136.61 11.9992 1136.67 11.9572 1136.69 11.8905C1136.7 11.8238 1136.66 11.7578 1136.59 11.743L1119.44 7.92516H1136.57C1136.63 7.92516 1136.69 7.8698 1136.69 7.80151C1136.69 7.73323 1136.63 7.67787 1136.57 7.67787H1118.33L1087.96 0.921115H1136.57C1136.63 0.921115 1136.69 0.865758 1136.69 0.797472C1136.69 0.729185 1136.63 0.673828 1136.57 0.673828H-176.241ZM1042.74 241.685L975.143 196.534H810.377L855.431 241.685H1042.74ZM855.083 241.685L810.029 196.534H645.183L667.69 241.685H855.083ZM667.814 241.933H855.33L914.801 301.532H697.524L667.814 241.933ZM667.414 241.685L644.906 196.534H480.001L479.961 241.685H667.414ZM479.961 241.933H667.537L697.247 301.532H479.91L479.961 241.933ZM479.714 241.685L479.753 196.534H314.852L292.266 241.685H479.714ZM292.142 241.933H479.714L479.662 301.532H262.33L292.142 241.933ZM291.99 241.685L314.575 196.534H149.725L104.593 241.685H291.99ZM104.346 241.933H291.866L262.053 301.532H44.7726L104.346 241.933ZM104.244 241.685L149.375 196.534H-15.387L-83.0652 241.685H104.244ZM-83.4359 241.933H103.996L44.423 301.532H-172.771L-83.4359 241.933ZM855.678 241.933H1043.11L1132.34 301.532H915.149L855.678 241.933ZM-15.0164 196.287H149.622L184.979 160.915H38.0036L-15.0164 196.287ZM149.972 196.287H314.699L332.392 160.915H185.329L149.972 196.287ZM314.975 196.287H479.753L479.784 160.915H332.669L314.975 196.287ZM480.001 196.287H644.783L627.15 160.915H480.031L480.001 196.287ZM645.06 196.287H809.782L774.486 160.915H627.427L645.06 196.287ZM810.13 196.287H974.772L921.814 160.915H774.835L810.13 196.287ZM1068.64 160.667L1011.85 132.224H879.303L921.889 160.667H1068.64ZM921.443 160.667L878.858 132.224H746.205L774.588 160.667H921.443ZM774.239 160.667L745.856 132.224H613.124L627.303 160.667H774.239ZM627.027 160.667L612.848 132.224H480.056L480.032 160.667H627.027ZM479.784 160.667L479.809 132.224H347.021L332.793 160.667H479.784ZM332.516 160.667L346.744 132.224H214.007L185.576 160.667H332.516ZM185.226 160.667L213.658 132.224H81.0091L38.3742 160.667H185.226ZM37.9286 160.667L80.5635 132.224H-51.9887L-108.827 160.667H37.9286ZM-37.699 384.04L44.5254 301.779H261.93L220.782 384.04H-37.699ZM221.058 384.04L262.206 301.779H479.662L479.591 384.04H221.058ZM479.838 384.04L479.909 301.779H697.371L738.377 384.04H479.838ZM738.653 384.04L697.647 301.779H915.048L997.132 384.04H738.653ZM1011.36 131.976L964.729 108.62H843.964L878.933 131.976H1011.36ZM878.488 131.976L843.519 108.62H722.652L745.958 131.976H878.488ZM745.61 131.976L722.303 108.62H601.358L613.001 131.976H745.61ZM612.725 131.976L601.082 108.62H480.077L480.056 131.976H612.725ZM479.809 131.976L479.829 108.62H358.828L347.144 131.976H479.809ZM346.868 131.976L358.551 108.62H237.601L214.254 131.976H346.868ZM213.905 131.976L237.251 108.62H116.389L81.3798 131.976H213.905ZM80.9342 131.976L115.944 108.62H-4.82193L-51.4946 131.976H80.9342ZM-4.88036 108.372H-125.409L-76.6807 88.8623H34.1059L-4.88036 108.372ZM116.314 108.372H-4.32777L34.6585 88.8623H145.558L116.314 108.372ZM237.498 108.372H116.76L146.004 88.8623H257L237.498 108.372ZM237.848 108.372H358.675L368.434 88.8623H257.349L237.848 108.372ZM358.951 108.372H479.83L479.846 88.8623H368.711L358.951 108.372ZM480.077 108.372H600.958L591.233 88.8623H480.094L480.077 108.372ZM601.235 108.372H722.057L702.588 88.8623H591.509L601.235 108.372ZM843.148 108.372H722.405L702.937 88.8623H813.938L843.148 108.372ZM964.235 108.372H843.594L814.383 88.8623H925.283L964.235 108.372ZM1085.33 108.372H964.787L925.835 88.8623H1036.63L1085.33 108.372ZM1086.82 0.921115H1020.42L1047.41 7.67787H1117.19L1086.82 0.921115ZM1019.41 0.921115H952.879L976.49 7.67787H1046.4L1019.41 0.921115ZM951.98 0.921115H885.336L905.573 7.67787H975.591L951.98 0.921115ZM884.555 0.921115H817.794L834.658 7.67787H904.792L884.555 0.921115ZM817.129 0.921115H750.258L763.748 7.67787H833.994L817.129 0.921115ZM749.706 0.921115H682.719L692.835 7.67787H763.196L749.706 0.921115ZM682.274 0.921115H615.185L621.928 7.67787H692.39L682.274 0.921115ZM614.836 0.921115H547.671L551.039 7.67787H621.578L614.836 0.921115ZM547.395 0.921115H480.17L480.164 7.67787H550.763L547.395 0.921115ZM479.923 0.921115H412.7L409.32 7.67787H479.917L479.923 0.921115ZM412.424 0.921115H345.252L338.498 7.67787H409.044L412.424 0.921115ZM344.903 0.921115H277.821L267.693 7.67787H338.149L344.903 0.921115ZM277.375 0.921115H210.388L196.887 7.67787H267.247L277.375 0.921115ZM209.836 0.921115H142.96L126.084 7.67787H196.334L209.836 0.921115ZM142.294 0.921115H75.5395L55.2896 7.67787H125.419L142.294 0.921115ZM74.7582 0.921115H8.11334L-15.5108 7.67787H54.5084L74.7582 0.921115ZM7.21408 0.921115H-59.3121L-86.3114 7.67787H-16.4101L7.21408 0.921115ZM-60.3307 0.921115H-126.737L-157.106 7.67787H-87.3301L-60.3307 0.921115ZM1016.85 45.0919L1053.7 57.3952H958.752L928.043 45.0919H1016.85ZM927.378 45.0919L958.087 57.3952H863.01L838.446 45.0919H927.378ZM958.704 57.6424H863.504L891.831 71.8305H994.118L958.704 57.6424ZM837.894 45.0919L862.458 57.3952H767.271L748.851 45.0919H837.894ZM862.952 57.6424H767.641L788.884 71.8305H891.278L862.952 57.6424ZM748.406 45.0919L766.826 57.3952H671.538L659.261 45.0919H748.406ZM767.196 57.6424H671.785L685.942 71.8305H788.438L767.196 57.6424ZM658.912 45.0919L671.189 57.3952H575.823L569.69 45.0919H658.912ZM671.436 57.6424H575.946L583.019 71.8305H685.593L671.436 57.6424ZM569.414 45.0919L575.547 57.3952H480.121L480.132 45.0919H569.414ZM575.67 57.6424H480.121L480.109 71.8305H582.743L575.67 57.6424ZM479.884 45.0919L479.874 57.3952H384.451L390.605 45.0919H479.884ZM479.873 57.6424H384.327L377.23 71.8305H479.861L479.873 57.6424ZM390.329 45.0919L384.175 57.3952H288.803L301.101 45.0919H390.329ZM384.051 57.6424H288.556L274.374 71.8305H376.954L384.051 57.6424ZM300.751 45.0919L288.453 57.3952H193.171L211.612 45.0919H300.751ZM288.206 57.6424H192.8L171.533 71.8305H274.024L288.206 57.6424ZM211.167 45.0919L192.725 57.3952H97.5383L122.124 45.0919H211.167ZM192.355 57.6424H97.0442L68.6926 71.8305H171.088L192.355 57.6424ZM121.571 45.0919L96.9857 57.3952H1.91122L32.6397 45.0919H121.571ZM96.4916 57.6424H1.29361L-34.1422 71.8305H68.1401L96.4916 57.6424ZM31.9744 45.0919L1.24593 57.3952H-93.7118L-56.8392 45.0919H31.9744ZM0.628311 57.6424H-94.4529L-136.974 71.8305H-34.8075L0.628311 57.6424ZM1054.44 57.6424H959.369L994.783 71.8305H1096.94L1054.44 57.6424ZM-76.063 88.6151H34.6001L67.6459 72.0778H-34.7598L-76.063 88.6151ZM35.1526 88.6151H145.929L170.717 72.0778H68.1985L35.1526 88.6151ZM146.375 88.6151H257.247L273.777 72.0778H171.163L146.375 88.6151ZM368.558 88.6151H257.597L274.127 72.0778H376.83L368.558 88.6151ZM479.847 88.6151H368.834L377.107 72.0778H479.861L479.847 88.6151ZM591.11 88.6151H480.094L480.108 72.0778H582.866L591.11 88.6151ZM702.342 88.6151H591.386L583.142 72.0778H685.84L702.342 88.6151ZM702.691 88.6151H813.568L788.809 72.0778H686.189L702.691 88.6151ZM814.013 88.6151H924.789L891.772 72.0778H789.254L814.013 88.6151ZM925.341 88.6151H1036.01L994.735 72.0778H892.324L925.341 88.6151ZM738.5 384.287H479.838L479.719 522.065H807.181L738.5 384.287ZM479.591 384.287H220.934L152.015 522.065H479.471L479.591 384.287ZM220.658 384.287H-37.9461L-175.664 522.065H151.739L220.658 384.287ZM997.378 384.287H738.776L807.458 522.065H1134.86L997.378 384.287ZM-118.343 15.6939L-151.981 24.1122H-73.8705L-44.4371 15.6939H-118.343ZM-43.5725 15.4466H-117.355L-87.2996 7.92516H-17.2747L-43.5725 15.4466ZM-43.5378 15.6939L-72.9712 24.1122H5.2552L30.4846 15.6939H-43.5378ZM31.2257 15.4466H-42.6732L-16.3754 7.92516H53.7672L31.2257 15.4466ZM31.2658 15.6939L6.03648 24.1122H84.373L105.398 15.6939H31.2658ZM106.016 15.4466H32.007L54.5485 7.92516H124.801L106.016 15.4466ZM106.064 15.6939L85.0382 24.1122H163.494L180.316 15.6939H106.064ZM180.81 15.4466H106.681L125.467 7.92516H195.84L180.81 15.4466ZM180.869 15.6939L164.047 24.1122H242.614L255.232 15.6939H180.869ZM255.603 15.4466H181.363L196.393 7.92516H266.877L255.603 15.4466ZM255.678 15.6939L243.059 24.1122H321.722L330.136 15.6939H255.678ZM330.384 15.4466H256.048L267.322 7.92516H337.902L330.384 15.4466ZM330.486 15.6939L322.071 24.1122H400.823L405.034 15.6939H330.486ZM405.158 15.4466H330.733L338.251 7.92516H408.92L405.158 15.4466ZM405.311 15.6939L401.1 24.1122H479.902L479.91 15.6939H405.311ZM479.91 15.4466H405.434L409.197 7.92516H479.917L479.91 15.4466ZM480.157 15.6939L480.15 24.1122H558.955L554.759 15.6939H480.157ZM554.636 15.4466H480.157L480.164 7.92516H550.886L554.636 15.4466ZM555.035 15.6939L559.232 24.1122H637.977L629.577 15.6939H555.035ZM629.33 15.4466H554.912L551.163 7.92516H621.825L629.33 15.4466ZM629.927 15.6939L638.327 24.1122H716.995L704.391 15.6939H629.927ZM704.021 15.4466H629.68L622.174 7.92516H692.76L704.021 15.4466ZM704.837 15.6939L717.44 24.1122H796.008L779.2 15.6939H704.837ZM778.706 15.4466H704.466L693.205 7.92516H763.69L778.706 15.4466ZM779.752 15.6939L796.56 24.1122H875.013L854.001 15.6939H779.752ZM853.384 15.4466H779.259L764.242 7.92516H834.611L853.384 15.4466ZM854.666 15.6939L875.678 24.1122H954.016L928.802 15.6939H854.666ZM928.061 15.4466H854.049L835.276 7.92516H905.533L928.061 15.4466ZM929.583 15.6939L954.796 24.1122H1033.02L1003.6 15.6939H929.583ZM1002.74 15.4466H928.842L906.314 7.92516H976.455L1002.74 15.4466ZM1004.5 15.6939L1033.92 24.1122H1112.04L1078.41 15.6939H1004.5ZM1077.43 15.4466H1003.64L977.354 7.92516H1047.38L1077.43 15.4466ZM-145.46 44.8446H-56.8794L-24.6441 34.0886H-107.853L-145.46 44.8446ZM32.592 44.8446H-56.0981L-23.8628 34.0886H59.4559L32.592 44.8446ZM122.065 44.8446H33.2573L60.1212 34.0886H143.558L122.065 44.8446ZM211.538 44.8446H122.618L144.111 34.0886H227.66L211.538 44.8446ZM300.998 44.8446H211.983L228.105 34.0886H311.75L300.998 44.8446ZM390.453 44.8446H301.348L312.099 34.0886H395.833L390.453 44.8446ZM479.885 44.8446H390.729L396.109 34.0886H479.894L479.885 44.8446ZM569.29 44.8446H480.132L480.141 34.0886H563.929L569.29 44.8446ZM658.665 44.8446H569.567L564.205 34.0886H647.932L658.665 44.8446ZM748.035 44.8446H659.014L648.282 34.0886H731.932L748.035 44.8446ZM837.4 44.8446H748.481L732.377 34.0886H815.926L837.4 44.8446ZM926.761 44.8446H837.952L816.478 34.0886H899.914L926.761 44.8446ZM1016.11 44.8446H927.426L900.579 34.0886H983.896L1016.11 44.8446ZM1016.89 44.8446H1105.47L1067.88 34.0886H984.677L1016.89 44.8446ZM1033.88 24.3594L1067.02 33.8414H983.937L955.537 24.3594H1033.88ZM954.756 24.3594L983.156 33.8414H899.962L876.295 24.3594H954.756ZM875.63 24.3594L899.297 33.8414H815.984L797.053 24.3594H875.63ZM796.501 24.3594L815.432 33.8414H732.007L717.811 24.3594H796.501ZM717.365 24.3594L731.562 33.8414H648.035L638.573 24.3594H717.365ZM638.224 24.3594L647.686 33.8414H564.082L559.355 24.3594H638.224ZM559.079 24.3594L563.805 33.8414H480.141L480.15 24.3594H559.079ZM479.902 24.3594L479.894 33.8414H396.233L400.976 24.3594H479.902ZM400.7 24.3594L395.957 33.8414H312.346L321.824 24.3594H400.7ZM321.475 24.3594L311.997 33.8414H228.476L242.689 24.3594H321.475ZM242.243 24.3594L228.03 33.8414H144.605L163.552 24.3594H242.243ZM163 24.3594L144.052 33.8414H60.7388L84.4206 24.3594H163ZM83.7553 24.3594L60.0735 33.8414H-23.1217L5.29536 24.3594H83.7553ZM4.51408 24.3594L-23.903 33.8414H-106.988L-73.8359 24.3594H4.51408Z" fill="url(#paint0_linear_1003_17444)" fill-opacity="0.7"/>
<path fill-rule="evenodd" clip-rule="evenodd" d="M-176.241 0.673828C-176.31 0.673828 -176.365 0.729185 -176.365 0.797472C-176.365 0.865758 -176.31 0.921115 -176.241 0.921115H-127.876L-158.245 7.67787H-176.241C-176.31 7.67787 -176.365 7.73323 -176.365 7.80151C-176.365 7.8698 -176.31 7.92516 -176.241 7.92516H-159.356L-176.269 11.6881C-176.336 11.7029 -176.378 11.7689 -176.363 11.8356C-176.348 11.9023 -176.282 11.9443 -176.216 11.9294L-158.218 7.92516H-88.3182L-118.373 15.4466H-176.241C-176.31 15.4466 -176.365 15.502 -176.365 15.5702C-176.365 15.6385 -176.31 15.6939 -176.241 15.6939H-119.361L-153 24.1122H-176.241C-176.31 24.1122 -176.365 24.1675 -176.365 24.2358C-176.365 24.3041 -176.31 24.3594 -176.241 24.3594H-153.988L-176.273 29.9363C-176.339 29.9529 -176.379 30.02 -176.362 30.0863C-176.346 30.1525 -176.279 30.1928 -176.213 30.1762L-152.969 24.3594H-74.7351L-107.887 33.8414H-176.241C-176.31 33.8414 -176.365 33.8967 -176.365 33.965C-176.365 34.0333 -176.31 34.0886 -176.241 34.0886H-108.752L-146.359 44.8446H-176.241C-176.31 44.8446 -176.365 44.8999 -176.365 44.9682C-176.365 45.0365 -176.31 45.0919 -176.241 45.0919H-147.223L-176.277 53.4014C-176.342 53.4201 -176.38 53.4886 -176.361 53.5542C-176.343 53.6199 -176.274 53.6579 -176.209 53.6391L-146.324 45.0919H-57.6205L-94.4931 57.3952H-176.241C-176.31 57.3952 -176.365 57.4505 -176.365 57.5188C-176.365 57.5871 -176.31 57.6424 -176.241 57.6424H-95.2342L-137.755 71.8305H-176.241C-176.31 71.8305 -176.365 71.8858 -176.365 71.9541C-176.365 72.0224 -176.31 72.0778 -176.241 72.0778H-138.497L-176.282 84.6855C-176.346 84.7071 -176.381 84.7772 -176.36 84.8419C-176.338 84.9067 -176.268 84.9417 -176.203 84.9201L-137.715 72.0778H-35.4251L-76.7283 88.6151H-176.241C-176.31 88.6151 -176.365 88.6704 -176.365 88.7387C-176.365 88.807 -176.31 88.8623 -176.241 88.8623H-77.346L-126.074 108.372H-176.241C-176.31 108.372 -176.365 108.428 -176.365 108.496C-176.365 108.564 -176.31 108.62 -176.241 108.62H-126.692L-176.287 128.477C-176.351 128.503 -176.381 128.575 -176.356 128.638C-176.331 128.701 -176.259 128.732 -176.195 128.707L-126.026 108.62H-5.3745L-52.0471 131.976H-176.241C-176.31 131.976 -176.365 132.032 -176.365 132.1C-176.365 132.168 -176.31 132.224 -176.241 132.224H-52.5413L-109.379 160.667H-176.241C-176.31 160.667 -176.365 160.723 -176.365 160.791C-176.365 160.859 -176.31 160.915 -176.241 160.915H-109.874L-176.297 194.155C-176.358 194.185 -176.382 194.26 -176.352 194.321C-176.321 194.382 -176.247 194.407 -176.186 194.376L-109.321 160.915H37.558L-15.462 196.287H-176.241C-176.31 196.287 -176.365 196.342 -176.365 196.41C-176.365 196.479 -176.31 196.534 -176.241 196.534H-15.8326L-83.5108 241.685H-176.241C-176.31 241.685 -176.365 241.741 -176.365 241.809C-176.365 241.877 -176.31 241.933 -176.241 241.933H-83.8815L-173.216 301.532H-176.241C-176.31 301.532 -176.365 301.587 -176.365 301.656C-176.365 301.724 -176.31 301.779 -176.241 301.779H-173.587L-176.311 303.597C-176.368 303.635 -176.383 303.711 -176.345 303.768C-176.307 303.825 -176.231 303.84 -176.174 303.802L-173.141 301.779H44.1758L-38.0486 384.04H-176.241C-176.31 384.04 -176.365 384.095 -176.365 384.163C-176.365 384.232 -176.31 384.287 -176.241 384.287H-38.2958L-176.049 522.1C-176.073 522.125 -176.085 522.157 -176.085 522.189C-176.085 522.257 -176.03 522.312 -175.962 522.312H1135.16C1135.23 522.312 1135.28 522.257 1135.28 522.189C1135.28 522.154 1135.27 522.123 1135.25 522.1C1135.24 522.097 1135.24 522.093 1135.23 522.089L997.726 384.287H1136.57C1136.63 384.287 1136.69 384.232 1136.69 384.163C1136.69 384.095 1136.63 384.04 1136.57 384.04H997.479L915.396 301.779H1132.71L1136.5 304.307C1136.56 304.345 1136.63 304.329 1136.67 304.272C1136.71 304.216 1136.69 304.139 1136.64 304.101L1133.16 301.779H1136.57C1136.63 301.779 1136.69 301.724 1136.69 301.656C1136.69 301.587 1136.63 301.532 1136.57 301.532H1132.79L1043.56 241.933H1136.57C1136.63 241.933 1136.69 241.877 1136.69 241.809C1136.69 241.741 1136.63 241.685 1136.57 241.685H1043.19L975.588 196.534H1136.57C1136.63 196.534 1136.69 196.479 1136.69 196.41C1136.69 196.342 1136.63 196.287 1136.57 196.287H975.218L922.259 160.915H1069.14L1136.51 194.661C1136.57 194.691 1136.65 194.666 1136.68 194.605C1136.71 194.544 1136.68 194.47 1136.62 194.439L1069.69 160.915H1136.57C1136.63 160.915 1136.69 160.859 1136.69 160.791C1136.69 160.723 1136.63 160.667 1136.57 160.667H1069.2L1012.41 132.224H1136.57C1136.63 132.224 1136.69 132.168 1136.69 132.1C1136.69 132.032 1136.63 131.976 1136.57 131.976H1011.91L965.281 108.62H1085.94L1136.52 128.884C1136.54 128.89 1136.55 128.893 1136.57 128.892C1136.59 128.892 1136.61 128.886 1136.63 128.877C1136.64 128.87 1136.65 128.862 1136.66 128.852C1136.67 128.842 1136.68 128.829 1136.68 128.815C1136.71 128.751 1136.68 128.679 1136.61 128.654L1086.61 108.62H1136.57C1136.63 108.62 1136.69 108.564 1136.69 108.496C1136.69 108.428 1136.63 108.372 1136.57 108.372H1085.99L1037.29 88.8623H1136.57C1136.63 88.8623 1136.69 88.807 1136.69 88.7387C1136.69 88.6704 1136.63 88.6151 1136.57 88.6151H1036.68L995.4 72.0778H1097.68L1136.53 85.0482C1136.59 85.0698 1136.66 85.0348 1136.68 84.9701C1136.71 84.9053 1136.67 84.8352 1136.61 84.8136L1098.46 72.0778H1136.57C1136.63 72.0778 1136.69 72.0224 1136.69 71.9541C1136.69 71.8858 1136.63 71.8305 1136.57 71.8305H1097.72L1055.22 57.6424H1136.57C1136.63 57.6424 1136.69 57.5871 1136.69 57.5188C1136.69 57.4505 1136.63 57.3952 1136.57 57.3952H1054.48L1017.63 45.0919H1106.33L1136.53 53.7346C1136.6 53.7534 1136.67 53.7154 1136.68 53.6498C1136.7 53.5841 1136.67 53.5157 1136.6 53.4969L1107.23 45.0919H1136.57C1136.63 45.0919 1136.69 45.0365 1136.69 44.9682C1136.69 44.8999 1136.63 44.8446 1136.57 44.8446H1106.37L1068.78 34.0886H1136.57C1136.63 34.0886 1136.69 34.0333 1136.69 33.965C1136.69 33.8967 1136.63 33.8414 1136.57 33.8414H1067.92L1034.78 24.3594H1113.03L1136.54 30.2453C1136.6 30.2619 1136.67 30.2216 1136.69 30.1554C1136.7 30.0892 1136.66 30.022 1136.6 30.0054L1114.04 24.3594H1136.57C1136.63 24.3594 1136.69 24.3041 1136.69 24.2358C1136.69 24.1675 1136.63 24.1122 1136.57 24.1122H1113.06L1079.43 15.6939H1136.57C1136.63 15.6939 1136.69 15.6385 1136.69 15.5702C1136.69 15.502 1136.63 15.4466 1136.57 15.4466H1078.44L1048.4 7.92516H1118.3L1136.54 11.9843C1136.61 11.9992 1136.67 11.9572 1136.69 11.8905C1136.7 11.8238 1136.66 11.7578 1136.59 11.743L1119.44 7.92516H1136.57C1136.63 7.92516 1136.69 7.8698 1136.69 7.80151C1136.69 7.73323 1136.63 7.67787 1136.57 7.67787H1118.33L1087.96 0.921115H1136.57C1136.63 0.921115 1136.69 0.865758 1136.69 0.797472C1136.69 0.729185 1136.63 0.673828 1136.57 0.673828H-176.241ZM1042.74 241.685L975.143 196.534H810.377L855.431 241.685H1042.74ZM855.083 241.685L810.029 196.534H645.183L667.69 241.685H855.083ZM667.814 241.933H855.33L914.801 301.532H697.524L667.814 241.933ZM667.414 241.685L644.906 196.534H480.001L479.961 241.685H667.414ZM479.961 241.933H667.537L697.247 301.532H479.91L479.961 241.933ZM479.714 241.685L479.753 196.534H314.852L292.266 241.685H479.714ZM292.142 241.933H479.714L479.662 301.532H262.33L292.142 241.933ZM291.99 241.685L314.575 196.534H149.725L104.593 241.685H291.99ZM104.346 241.933H291.866L262.053 301.532H44.7726L104.346 241.933ZM104.244 241.685L149.375 196.534H-15.387L-83.0652 241.685H104.244ZM-83.4359 241.933H103.996L44.423 301.532H-172.771L-83.4359 241.933ZM855.678 241.933H1043.11L1132.34 301.532H915.149L855.678 241.933ZM-15.0164 196.287H149.622L184.979 160.915H38.0036L-15.0164 196.287ZM149.972 196.287H314.699L332.392 160.915H185.329L149.972 196.287ZM314.975 196.287H479.753L479.784 160.915H332.669L314.975 196.287ZM480.001 196.287H644.783L627.15 160.915H480.031L480.001 196.287ZM645.06 196.287H809.782L774.486 160.915H627.427L645.06 196.287ZM810.13 196.287H974.772L921.814 160.915H774.835L810.13 196.287ZM1068.64 160.667L1011.85 132.224H879.303L921.889 160.667H1068.64ZM921.443 160.667L878.858 132.224H746.205L774.588 160.667H921.443ZM774.239 160.667L745.856 132.224H613.124L627.303 160.667H774.239ZM627.027 160.667L612.848 132.224H480.056L480.032 160.667H627.027ZM479.784 160.667L479.809 132.224H347.021L332.793 160.667H479.784ZM332.516 160.667L346.744 132.224H214.007L185.576 160.667H332.516ZM185.226 160.667L213.658 132.224H81.0091L38.3742 160.667H185.226ZM37.9286 160.667L80.5635 132.224H-51.9887L-108.827 160.667H37.9286ZM-37.699 384.04L44.5254 301.779H261.93L220.782 384.04H-37.699ZM221.058 384.04L262.206 301.779H479.662L479.591 384.04H221.058ZM479.838 384.04L479.909 301.779H697.371L738.377 384.04H479.838ZM738.653 384.04L697.647 301.779H915.048L997.132 384.04H738.653ZM1011.36 131.976L964.729 108.62H843.964L878.933 131.976H1011.36ZM878.488 131.976L843.519 108.62H722.652L745.958 131.976H878.488ZM745.61 131.976L722.303 108.62H601.358L613.001 131.976H745.61ZM612.725 131.976L601.082 108.62H480.077L480.056 131.976H612.725ZM479.809 131.976L479.829 108.62H358.828L347.144 131.976H479.809ZM346.868 131.976L358.551 108.62H237.601L214.254 131.976H346.868ZM213.905 131.976L237.251 108.62H116.389L81.3798 131.976H213.905ZM80.9342 131.976L115.944 108.62H-4.82193L-51.4946 131.976H80.9342ZM-4.88036 108.372H-125.409L-76.6807 88.8623H34.1059L-4.88036 108.372ZM116.314 108.372H-4.32777L34.6585 88.8623H145.558L116.314 108.372ZM237.498 108.372H116.76L146.004 88.8623H257L237.498 108.372ZM237.848 108.372H358.675L368.434 88.8623H257.349L237.848 108.372ZM358.951 108.372H479.83L479.846 88.8623H368.711L358.951 108.372ZM480.077 108.372H600.958L591.233 88.8623H480.094L480.077 108.372ZM601.235 108.372H722.057L702.588 88.8623H591.509L601.235 108.372ZM843.148 108.372H722.405L702.937 88.8623H813.938L843.148 108.372ZM964.235 108.372H843.594L814.383 88.8623H925.283L964.235 108.372ZM1085.33 108.372H964.787L925.835 88.8623H1036.63L1085.33 108.372ZM1086.82 0.921115H1020.42L1047.41 7.67787H1117.19L1086.82 0.921115ZM1019.41 0.921115H952.879L976.49 7.67787H1046.4L1019.41 0.921115ZM951.98 0.921115H885.336L905.573 7.67787H975.591L951.98 0.921115ZM884.555 0.921115H817.794L834.658 7.67787H904.792L884.555 0.921115ZM817.129 0.921115H750.258L763.748 7.67787H833.994L817.129 0.921115ZM749.706 0.921115H682.719L692.835 7.67787H763.196L749.706 0.921115ZM682.274 0.921115H615.185L621.928 7.67787H692.39L682.274 0.921115ZM614.836 0.921115H547.671L551.039 7.67787H621.578L614.836 0.921115ZM547.395 0.921115H480.17L480.164 7.67787H550.763L547.395 0.921115ZM479.923 0.921115H412.7L409.32 7.67787H479.917L479.923 0.921115ZM412.424 0.921115H345.252L338.498 7.67787H409.044L412.424 0.921115ZM344.903 0.921115H277.821L267.693 7.67787H338.149L344.903 0.921115ZM277.375 0.921115H210.388L196.887 7.67787H267.247L277.375 0.921115ZM209.836 0.921115H142.96L126.084 7.67787H196.334L209.836 0.921115ZM142.294 0.921115H75.5395L55.2896 7.67787H125.419L142.294 0.921115ZM74.7582 0.921115H8.11334L-15.5108 7.67787H54.5084L74.7582 0.921115ZM7.21408 0.921115H-59.3121L-86.3114 7.67787H-16.4101L7.21408 0.921115ZM-60.3307 0.921115H-126.737L-157.106 7.67787H-87.3301L-60.3307 0.921115ZM1016.85 45.0919L1053.7 57.3952H958.752L928.043 45.0919H1016.85ZM927.378 45.0919L958.087 57.3952H863.01L838.446 45.0919H927.378ZM958.704 57.6424H863.504L891.831 71.8305H994.118L958.704 57.6424ZM837.894 45.0919L862.458 57.3952H767.271L748.851 45.0919H837.894ZM862.952 57.6424H767.641L788.884 71.8305H891.278L862.952 57.6424ZM748.406 45.0919L766.826 57.3952H671.538L659.261 45.0919H748.406ZM767.196 57.6424H671.785L685.942 71.8305H788.438L767.196 57.6424ZM658.912 45.0919L671.189 57.3952H575.823L569.69 45.0919H658.912ZM671.436 57.6424H575.946L583.019 71.8305H685.593L671.436 57.6424ZM569.414 45.0919L575.547 57.3952H480.121L480.132 45.0919H569.414ZM575.67 57.6424H480.121L480.109 71.8305H582.743L575.67 57.6424ZM479.884 45.0919L479.874 57.3952H384.451L390.605 45.0919H479.884ZM479.873 57.6424H384.327L377.23 71.8305H479.861L479.873 57.6424ZM390.329 45.0919L384.175 57.3952H288.803L301.101 45.0919H390.329ZM384.051 57.6424H288.556L274.374 71.8305H376.954L384.051 57.6424ZM300.751 45.0919L288.453 57.3952H193.171L211.612 45.0919H300.751ZM288.206 57.6424H192.8L171.533 71.8305H274.024L288.206 57.6424ZM211.167 45.0919L192.725 57.3952H97.5383L122.124 45.0919H211.167ZM192.355 57.6424H97.0442L68.6926 71.8305H171.088L192.355 57.6424ZM121.571 45.0919L96.9857 57.3952H1.91122L32.6397 45.0919H121.571ZM96.4916 57.6424H1.29361L-34.1422 71.8305H68.1401L96.4916 57.6424ZM31.9744 45.0919L1.24593 57.3952H-93.7118L-56.8392 45.0919H31.9744ZM0.628311 57.6424H-94.4529L-136.974 71.8305H-34.8075L0.628311 57.6424ZM1054.44 57.6424H959.369L994.783 71.8305H1096.94L1054.44 57.6424ZM-76.063 88.6151H34.6001L67.6459 72.0778H-34.7598L-76.063 88.6151ZM35.1526 88.6151H145.929L170.717 72.0778H68.1985L35.1526 88.6151ZM146.375 88.6151H257.247L273.777 72.0778H171.163L146.375 88.6151ZM368.558 88.6151H257.597L274.127 72.0778H376.83L368.558 88.6151ZM479.847 88.6151H368.834L377.107 72.0778H479.861L479.847 88.6151ZM591.11 88.6151H480.094L480.108 72.0778H582.866L591.11 88.6151ZM702.342 88.6151H591.386L583.142 72.0778H685.84L702.342 88.6151ZM702.691 88.6151H813.568L788.809 72.0778H686.189L702.691 88.6151ZM814.013 88.6151H924.789L891.772 72.0778H789.254L814.013 88.6151ZM925.341 88.6151H1036.01L994.735 72.0778H892.324L925.341 88.6151ZM738.5 384.287H479.838L479.719 522.065H807.181L738.5 384.287ZM479.591 384.287H220.934L152.015 522.065H479.471L479.591 384.287ZM220.658 384.287H-37.9461L-175.664 522.065H151.739L220.658 384.287ZM997.378 384.287H738.776L807.458 522.065H1134.86L997.378 384.287ZM-118.343 15.6939L-151.981 24.1122H-73.8705L-44.4371 15.6939H-118.343ZM-43.5725 15.4466H-117.355L-87.2996 7.92516H-17.2747L-43.5725 15.4466ZM-43.5378 15.6939L-72.9712 24.1122H5.2552L30.4846 15.6939H-43.5378ZM31.2257 15.4466H-42.6732L-16.3754 7.92516H53.7672L31.2257 15.4466ZM31.2658 15.6939L6.03648 24.1122H84.373L105.398 15.6939H31.2658ZM106.016 15.4466H32.007L54.5485 7.92516H124.801L106.016 15.4466ZM106.064 15.6939L85.0382 24.1122H163.494L180.316 15.6939H106.064ZM180.81 15.4466H106.681L125.467 7.92516H195.84L180.81 15.4466ZM180.869 15.6939L164.047 24.1122H242.614L255.232 15.6939H180.869ZM255.603 15.4466H181.363L196.393 7.92516H266.877L255.603 15.4466ZM255.678 15.6939L243.059 24.1122H321.722L330.136 15.6939H255.678ZM330.384 15.4466H256.048L267.322 7.92516H337.902L330.384 15.4466ZM330.486 15.6939L322.071 24.1122H400.823L405.034 15.6939H330.486ZM405.158 15.4466H330.733L338.251 7.92516H408.92L405.158 15.4466ZM405.311 15.6939L401.1 24.1122H479.902L479.91 15.6939H405.311ZM479.91 15.4466H405.434L409.197 7.92516H479.917L479.91 15.4466ZM480.157 15.6939L480.15 24.1122H558.955L554.759 15.6939H480.157ZM554.636 15.4466H480.157L480.164 7.92516H550.886L554.636 15.4466ZM555.035 15.6939L559.232 24.1122H637.977L629.577 15.6939H555.035ZM629.33 15.4466H554.912L551.163 7.92516H621.825L629.33 15.4466ZM629.927 15.6939L638.327 24.1122H716.995L704.391 15.6939H629.927ZM704.021 15.4466H629.68L622.174 7.92516H692.76L704.021 15.4466ZM704.837 15.6939L717.44 24.1122H796.008L779.2 15.6939H704.837ZM778.706 15.4466H704.466L693.205 7.92516H763.69L778.706 15.4466ZM779.752 15.6939L796.56 24.1122H875.013L854.001 15.6939H779.752ZM853.384 15.4466H779.259L764.242 7.92516H834.611L853.384 15.4466ZM854.666 15.6939L875.678 24.1122H954.016L928.802 15.6939H854.666ZM928.061 15.4466H854.049L835.276 7.92516H905.533L928.061 15.4466ZM929.583 15.6939L954.796 24.1122H1033.02L1003.6 15.6939H929.583ZM1002.74 15.4466H928.842L906.314 7.92516H976.455L1002.74 15.4466ZM1004.5 15.6939L1033.92 24.1122H1112.04L1078.41 15.6939H1004.5ZM1077.43 15.4466H1003.64L977.354 7.92516H1047.38L1077.43 15.4466ZM-145.46 44.8446H-56.8794L-24.6441 34.0886H-107.853L-145.46 44.8446ZM32.592 44.8446H-56.0981L-23.8628 34.0886H59.4559L32.592 44.8446ZM122.065 44.8446H33.2573L60.1212 34.0886H143.558L122.065 44.8446ZM211.538 44.8446H122.618L144.111 34.0886H227.66L211.538 44.8446ZM300.998 44.8446H211.983L228.105 34.0886H311.75L300.998 44.8446ZM390.453 44.8446H301.348L312.099 34.0886H395.833L390.453 44.8446ZM479.885 44.8446H390.729L396.109 34.0886H479.894L479.885 44.8446ZM569.29 44.8446H480.132L480.141 34.0886H563.929L569.29 44.8446ZM658.665 44.8446H569.567L564.205 34.0886H647.932L658.665 44.8446ZM748.035 44.8446H659.014L648.282 34.0886H731.932L748.035 44.8446ZM837.4 44.8446H748.481L732.377 34.0886H815.926L837.4 44.8446ZM926.761 44.8446H837.952L816.478 34.0886H899.914L926.761 44.8446ZM1016.11 44.8446H927.426L900.579 34.0886H983.896L1016.11 44.8446ZM1016.89 44.8446H1105.47L1067.88 34.0886H984.677L1016.89 44.8446ZM1033.88 24.3594L1067.02 33.8414H983.937L955.537 24.3594H1033.88ZM954.756 24.3594L983.156 33.8414H899.962L876.295 24.3594H954.756ZM875.63 24.3594L899.297 33.8414H815.984L797.053 24.3594H875.63ZM796.501 24.3594L815.432 33.8414H732.007L717.811 24.3594H796.501ZM717.365 24.3594L731.562 33.8414H648.035L638.573 24.3594H717.365ZM638.224 24.3594L647.686 33.8414H564.082L559.355 24.3594H638.224ZM559.079 24.3594L563.805 33.8414H480.141L480.15 24.3594H559.079ZM479.902 24.3594L479.894 33.8414H396.233L400.976 24.3594H479.902ZM400.7 24.3594L395.957 33.8414H312.346L321.824 24.3594H400.7ZM321.475 24.3594L311.997 33.8414H228.476L242.689 24.3594H321.475ZM242.243 24.3594L228.03 33.8414H144.605L163.552 24.3594H242.243ZM163 24.3594L144.052 33.8414H60.7388L84.4206 24.3594H163ZM83.7553 24.3594L60.0735 33.8414H-23.1217L5.29536 24.3594H83.7553ZM4.51408 24.3594L-23.903 33.8414H-106.988L-73.8359 24.3594H4.51408Z" fill="url(#paint1_linear_1003_17444)"/>
<defs>
<linearGradient id="paint0_linear_1003_17444" x1="480.163" y1="28.6818" x2="480.163" y2="501.064" gradientUnits="userSpaceOnUse">
<stop offset="0.0640087" stop-color="white"/>
<stop offset="0.515" stop-color="white" stop-opacity="0.6"/>
<stop offset="0.82" stop-color="white" stop-opacity="0.2"/>
<stop offset="1" stop-color="white" stop-opacity="0"/>
</linearGradient>
<linearGradient id="paint1_linear_1003_17444" x1="-176.366" y1="117.179" x2="941.696" y2="-349.146" gradientUnits="userSpaceOnUse">
<stop/>
<stop offset="0.10179"/>
<stop offset="0.502032" stop-opacity="0"/>
<stop offset="0.895393"/>
<stop offset="1"/>
</linearGradient>
</defs>
</svg>
